<svg width="47" height="26" viewBox="0 0 47 26" fill="none" xmlns="http://www.w3.org/2000/svg">
<path d="M19.424 23L20.32 17.36H20.816L19.992 22.56H22.928L22.856 23H19.424ZM25.2422 23.064C24.7409 23.064 24.3462 22.9147 24.0582 22.616C23.7702 22.3173 23.6262 21.904 23.6262 21.376C23.6262 20.9547 23.7035 20.568 23.8582 20.216C24.0182 19.864 24.2475 19.5813 24.5462 19.368C24.8449 19.1547 25.2022 19.048 25.6182 19.048C26.1142 19.048 26.5062 19.2 26.7942 19.504C27.0875 19.8027 27.2342 20.2133 27.2342 20.736C27.2342 21.1627 27.1542 21.552 26.9942 21.904C26.8342 22.256 26.6049 22.5387 26.3062 22.752C26.0129 22.96 25.6582 23.064 25.2422 23.064ZM25.2582 22.656C25.5782 22.656 25.8475 22.568 26.0662 22.392C26.2849 22.216 26.4502 21.9813 26.5622 21.688C26.6795 21.3947 26.7382 21.072 26.7382 20.72C26.7382 20.3093 26.6369 19.9973 26.4342 19.784C26.2315 19.5707 25.9515 19.464 25.5942 19.464C25.2795 19.464 25.0102 19.552 24.7862 19.728C24.5675 19.904 24.4022 20.1387 24.2902 20.432C24.1782 20.7253 24.1222 21.048 24.1222 21.4C24.1222 21.8107 24.2209 22.1227 24.4182 22.336C24.6209 22.5493 24.9009 22.656 25.2582 22.656ZM27.9532 23L28.5692 19.12H29.0492L28.9372 19.808C29.0865 19.568 29.2812 19.3813 29.5212 19.248C29.7612 19.1147 30.0412 19.048 30.3612 19.048C30.7932 19.048 31.1185 19.1787 31.3372 19.44C31.5559 19.7013 31.6225 20.1013 31.5372 20.64L31.1612 23H30.6732L31.0492 20.64C31.1719 19.8613 30.9105 19.472 30.2652 19.472C29.8385 19.472 29.4999 19.6027 29.2492 19.864C29.0039 20.12 28.8465 20.4613 28.7772 20.888L28.4412 23H27.9532ZM33.9818 23.064C33.5284 23.064 33.1631 22.9173 32.8858 22.624C32.6138 22.3253 32.4778 21.92 32.4778 21.408C32.4778 20.9867 32.5524 20.5973 32.7018 20.24C32.8511 19.8827 33.0698 19.5947 33.3578 19.376C33.6458 19.1573 33.9978 19.048 34.4138 19.048C34.7124 19.048 34.9818 19.12 35.2218 19.264C35.4618 19.408 35.6351 19.6293 35.7418 19.928L36.1498 17.36H36.6378L35.7418 23H35.2618L35.3658 22.344C35.2164 22.568 35.0244 22.744 34.7898 22.872C34.5551 23 34.2858 23.064 33.9818 23.064ZM34.1098 22.656C34.4298 22.656 34.6991 22.568 34.9178 22.392C35.1364 22.216 35.3018 21.9813 35.4138 21.688C35.5311 21.3947 35.5898 21.072 35.5898 20.72C35.5898 20.3093 35.4884 19.9973 35.2858 19.784C35.0831 19.5707 34.8031 19.464 34.4457 19.464C34.1258 19.464 33.8564 19.552 33.6378 19.728C33.4191 19.904 33.2538 20.1387 33.1418 20.432C33.0298 20.7253 32.9738 21.048 32.9738 21.4C32.9738 21.8107 33.0724 22.1227 33.2697 22.336C33.4724 22.5493 33.7524 22.656 34.1098 22.656ZM38.6953 23.064C38.194 23.064 37.7993 22.9147 37.5113 22.616C37.2233 22.3173 37.0793 21.904 37.0793 21.376C37.0793 20.9547 37.1566 20.568 37.3113 20.216C37.4713 19.864 37.7006 19.5813 37.9993 19.368C38.298 19.1547 38.6553 19.048 39.0713 19.048C39.5673 19.048 39.9593 19.2 40.2473 19.504C40.5406 19.8027 40.6873 20.2133 40.6873 20.736C40.6873 21.1627 40.6073 21.552 40.4473 21.904C40.2873 22.256 40.058 22.5387 39.7593 22.752C39.466 22.96 39.1113 23.064 38.6953 23.064ZM38.7113 22.656C39.0313 22.656 39.3006 22.568 39.5193 22.392C39.738 22.216 39.9033 21.9813 40.0153 21.688C40.1326 21.3947 40.1913 21.072 40.1913 20.72C40.1913 20.3093 40.09 19.9973 39.8873 19.784C39.6846 19.5707 39.4046 19.464 39.0473 19.464C38.7326 19.464 38.4633 19.552 38.2393 19.728C38.0206 19.904 37.8553 20.1387 37.7433 20.432C37.6313 20.7253 37.5753 21.048 37.5753 21.4C37.5753 21.8107 37.674 22.1227 37.8713 22.336C38.074 22.5493 38.354 22.656 38.7113 22.656ZM41.4063 23L42.0223 19.12H42.5023L42.3903 19.808C42.5396 19.568 42.7343 19.3813 42.9743 19.248C43.2143 19.1147 43.4943 19.048 43.8143 19.048C44.2463 19.048 44.5716 19.1787 44.7903 19.44C45.009 19.7013 45.0756 20.1013 44.9903 20.64L44.6143 23H44.1263L44.5023 20.64C44.625 19.8613 44.3636 19.472 43.7183 19.472C43.2916 19.472 42.953 19.6027 42.7023 19.864C42.457 20.12 42.2996 20.4613 42.2303 20.888L41.8943 23H41.4063Z" fill="white"/>
<path d="M1.98 12.044C1.492 12.044 1.124 11.964 0.876 11.804C0.628 11.644 0.5 11.38 0.492 11.012C0.492 10.932 0.536 10.892 0.624 10.892C0.696 10.892 0.804 10.912 0.948 10.952C1.1 10.984 1.384 11 1.8 11C2.504 11 3.152 10.928 3.744 10.784C4.336 10.632 4.848 10.432 5.28 10.184C5.72 9.928 6.06 9.644 6.3 9.332C6.54 9.012 6.66 8.68 6.66 8.336C6.66 8.024 6.564 7.776 6.372 7.592C6.188 7.4 5.94 7.256 5.628 7.16C5.324 7.056 4.988 6.988 4.62 6.956C4.26 6.924 3.904 6.908 3.552 6.908C3.4 6.908 3.248 6.912 3.096 6.92C2.944 6.92 2.8 6.92 2.664 6.92C2.488 7.528 2.316 8.156 2.148 8.804C1.98 9.452 1.804 10.088 1.62 10.712C1.38 10.712 1.172 10.648 0.996 10.52C0.82 10.392 0.732 10.236 0.732 10.052C0.732 9.98 0.744 9.888 0.768 9.776C0.8 9.656 0.844 9.516 0.9 9.356C0.948 9.204 1.028 8.952 1.14 8.6C1.26 8.248 1.4 7.832 1.56 7.352C1.72 6.872 1.896 6.368 2.088 5.84C2.288 5.304 2.492 4.78 2.7 4.268C2.916 3.756 3.128 3.296 3.336 2.888C3.016 2.96 2.752 3.044 2.544 3.14C2.336 3.236 2.172 3.32 2.052 3.392C1.932 3.464 1.84 3.5 1.776 3.5C1.728 3.5 1.664 3.472 1.584 3.416C1.512 3.36 1.444 3.296 1.38 3.224C1.324 3.152 1.296 3.088 1.296 3.032C1.728 2.856 2.176 2.7 2.64 2.564C3.104 2.428 3.664 2.36 4.32 2.36C4.608 2.36 4.924 2.384 5.268 2.432C5.612 2.472 5.94 2.56 6.252 2.696C6.564 2.824 6.82 3.02 7.02 3.284C7.228 3.54 7.332 3.884 7.332 4.316C7.332 4.66 7.256 4.96 7.104 5.216C6.96 5.464 6.764 5.68 6.516 5.864C6.268 6.04 5.996 6.188 5.7 6.308C5.404 6.42 5.112 6.512 4.824 6.584C5.32 6.648 5.732 6.752 6.06 6.896C6.396 7.032 6.66 7.192 6.852 7.376C7.052 7.56 7.192 7.752 7.272 7.952C7.36 8.144 7.404 8.332 7.404 8.516C7.404 8.988 7.28 9.412 7.032 9.788C6.784 10.164 6.456 10.492 6.048 10.772C5.648 11.052 5.204 11.284 4.716 11.468C4.236 11.66 3.756 11.804 3.276 11.9C2.796 11.996 2.364 12.044 1.98 12.044ZM2.784 6.464C3.232 6.448 3.672 6.396 4.104 6.308C4.536 6.22 4.924 6.092 5.268 5.924C5.62 5.748 5.9 5.524 6.108 5.252C6.316 4.972 6.42 4.628 6.42 4.22C6.42 3.836 6.316 3.54 6.108 3.332C5.9 3.124 5.628 2.98 5.292 2.9C4.956 2.82 4.596 2.78 4.212 2.78C4.204 2.78 4.196 2.78 4.188 2.78C4.18 2.78 4.172 2.78 4.164 2.78C3.892 3.316 3.644 3.9 3.42 4.532C3.196 5.156 2.984 5.8 2.784 6.464ZM8.59669 11.384C8.23669 11.384 7.98869 11.264 7.85269 11.024C7.72469 10.792 7.66069 10.536 7.66069 10.256C7.66069 10 7.70069 9.74 7.78069 9.476C7.86069 9.204 7.96869 8.952 8.10469 8.72C8.24869 8.488 8.40469 8.304 8.57269 8.168C8.74869 8.024 8.92469 7.952 9.10069 7.952C9.15669 7.952 9.22069 7.964 9.29269 7.988C9.37269 8.004 9.42869 8.032 9.46069 8.072C9.36469 8.192 9.26469 8.34 9.16069 8.516C9.06469 8.692 8.97269 8.88 8.88469 9.08C8.80469 9.272 8.74069 9.468 8.69269 9.668C8.64469 9.868 8.62069 10.052 8.62069 10.22C8.62069 10.38 8.64869 10.512 8.70469 10.616C8.76869 10.72 8.87669 10.772 9.02869 10.772C9.18069 10.772 9.36069 10.688 9.56869 10.52C9.78469 10.344 9.98869 10.144 10.1807 9.92C9.92469 9.688 9.74069 9.436 9.62869 9.164C9.51669 8.884 9.46069 8.548 9.46069 8.156C9.46069 7.988 9.50069 7.796 9.58069 7.58C9.66869 7.364 9.80469 7.176 9.98869 7.016C10.1807 6.856 10.4367 6.776 10.7567 6.776C11.1007 6.776 11.3407 6.872 11.4767 7.064C11.6207 7.256 11.6927 7.484 11.6927 7.748C11.6927 8.044 11.6127 8.376 11.4527 8.744C11.3007 9.112 11.1167 9.46 10.9007 9.788C10.9967 9.836 11.1087 9.86 11.2367 9.86C11.3567 9.86 11.5007 9.832 11.6687 9.776C11.8367 9.72 12.0007 9.628 12.1607 9.5C12.3207 9.364 12.4487 9.184 12.5447 8.96L12.7607 9.116C12.5847 9.524 12.3487 9.824 12.0527 10.016C11.7647 10.2 11.4807 10.292 11.2007 10.292C11.0967 10.292 10.9927 10.284 10.8887 10.268C10.7847 10.244 10.6887 10.216 10.6007 10.184C10.3287 10.504 10.0167 10.784 9.66469 11.024C9.31269 11.264 8.95669 11.384 8.59669 11.384ZM10.4927 9.536C10.6847 9.256 10.8487 8.956 10.9847 8.636C11.1207 8.316 11.1887 8.02 11.1887 7.748C11.1887 7.564 11.1607 7.432 11.1047 7.352C11.0487 7.264 10.9647 7.22 10.8527 7.22C10.7007 7.22 10.5447 7.328 10.3847 7.544C10.2247 7.76 10.1447 8.032 10.1447 8.36C10.1447 8.528 10.1727 8.732 10.2287 8.972C10.2927 9.212 10.3807 9.4 10.4927 9.536ZM13.3975 11.36C13.0215 11.36 12.7415 11.236 12.5575 10.988C12.3815 10.74 12.2935 10.42 12.2935 10.028C12.2935 9.652 12.3655 9.204 12.5095 8.684C12.6535 8.164 12.8415 7.616 13.0735 7.04C13.3135 6.464 13.5735 5.9 13.8535 5.348C14.1415 4.796 14.4295 4.296 14.7175 3.848C15.0055 3.392 15.2695 3.032 15.5095 2.768C15.7575 2.496 15.9575 2.36 16.1095 2.36C16.2135 2.36 16.3015 2.416 16.3735 2.528C16.4455 2.632 16.5015 2.76 16.5415 2.912C16.5895 3.064 16.6135 3.208 16.6135 3.344C16.6135 3.552 16.5575 3.828 16.4455 4.172C16.3415 4.508 16.1895 4.88 15.9895 5.288C15.7975 5.696 15.5655 6.116 15.2935 6.548C15.0295 6.972 14.7335 7.38 14.4055 7.772C14.0855 8.156 13.7415 8.492 13.3735 8.78C13.3415 8.98 13.3095 9.192 13.2775 9.416C13.2535 9.632 13.2415 9.82 13.2415 9.98C13.2415 10.532 13.4135 10.808 13.7575 10.808C13.9335 10.808 14.1135 10.736 14.2975 10.592C14.4895 10.44 14.6735 10.244 14.8495 10.004C15.0255 9.756 15.1855 9.488 15.3295 9.2C15.4095 8.792 15.5295 8.352 15.6895 7.88C15.8495 7.408 16.0335 6.936 16.2415 6.464C16.4575 5.984 16.6855 5.528 16.9255 5.096C17.1655 4.656 17.4015 4.268 17.6335 3.932C17.8655 3.588 18.0775 3.32 18.2695 3.128C18.4695 2.928 18.6335 2.828 18.7615 2.828C18.8655 2.828 18.9535 2.884 19.0255 2.996C19.1055 3.1 19.1655 3.232 19.2055 3.392C19.2535 3.544 19.2775 3.692 19.2775 3.836C19.2775 4.084 19.2095 4.412 19.0735 4.82C18.9375 5.22 18.7415 5.66 18.4855 6.14C18.2375 6.612 17.9335 7.08 17.5735 7.544C17.2135 8.008 16.8055 8.42 16.3495 8.78C16.3095 8.964 16.2775 9.16 16.2535 9.368C16.2295 9.576 16.2175 9.76 16.2175 9.92C16.2175 10.512 16.3815 10.808 16.7095 10.808C16.9175 10.808 17.1295 10.716 17.3455 10.532C17.5615 10.34 17.7655 10.096 17.9575 9.8C18.1495 9.504 18.3135 9.204 18.4495 8.9L18.7495 9.056C18.4135 9.768 18.0455 10.332 17.6455 10.748C17.2535 11.156 16.8215 11.36 16.3495 11.36C15.9815 11.36 15.7095 11.24 15.5335 11C15.3575 10.76 15.2655 10.448 15.2575 10.064C14.9855 10.472 14.6935 10.788 14.3815 11.012C14.0775 11.244 13.7495 11.36 13.3975 11.36ZM13.5895 8.108C13.8535 7.828 14.1055 7.52 14.3455 7.184C14.5935 6.84 14.8215 6.492 15.0295 6.14C15.2375 5.788 15.4175 5.448 15.5695 5.12C15.7295 4.792 15.8535 4.496 15.9415 4.232C16.0295 3.968 16.0735 3.76 16.0735 3.608C16.0735 3.568 16.0735 3.536 16.0735 3.512C16.0735 3.488 16.0655 3.472 16.0495 3.464C15.9935 3.464 15.8935 3.556 15.7495 3.74C15.6055 3.916 15.4375 4.16 15.2455 4.472C15.0615 4.784 14.8655 5.14 14.6575 5.54C14.4575 5.932 14.2615 6.352 14.0695 6.8C13.8855 7.24 13.7255 7.676 13.5895 8.108ZM16.5415 8.12C16.8615 7.784 17.1535 7.424 17.4175 7.04C17.6895 6.648 17.9215 6.264 18.1135 5.888C18.3135 5.504 18.4655 5.156 18.5695 4.844C18.6815 4.524 18.7375 4.272 18.7375 4.088C18.7375 4.048 18.7375 4.02 18.7375 4.004C18.7375 3.98 18.7335 3.96 18.7255 3.944C18.6455 3.944 18.5175 4.06 18.3415 4.292C18.1735 4.524 17.9815 4.84 17.7655 5.24C17.5495 5.632 17.3335 6.076 17.1175 6.572C16.9015 7.068 16.7095 7.584 16.5415 8.12ZM18.7283 14.36C18.5283 14.36 18.3403 14.296 18.1643 14.168C17.9963 14.048 17.9123 13.852 17.9123 13.58C17.9123 13.324 17.9883 13.092 18.1403 12.884C18.2923 12.684 18.4883 12.496 18.7283 12.32C18.9683 12.152 19.2243 11.996 19.4963 11.852C19.7763 11.716 20.0443 11.588 20.3003 11.468C20.3883 11.236 20.4843 10.944 20.5883 10.592C20.7003 10.232 20.7963 9.9 20.8763 9.596C20.6283 9.94 20.3643 10.244 20.0843 10.508C19.8043 10.772 19.4923 10.904 19.1483 10.904C19.0043 10.904 18.8523 10.876 18.6923 10.82C18.5323 10.756 18.3963 10.652 18.2843 10.508C18.1803 10.356 18.1283 10.156 18.1283 9.908C18.1283 9.7 18.1643 9.448 18.2363 9.152C18.3163 8.856 18.4123 8.568 18.5243 8.288C18.6443 8 18.7683 7.764 18.8963 7.58C19.0243 7.388 19.1363 7.292 19.2323 7.292C19.2803 7.292 19.3483 7.312 19.4363 7.352C19.5323 7.384 19.6243 7.432 19.7123 7.496C19.8003 7.552 19.8563 7.616 19.8803 7.688C19.8083 7.784 19.7283 7.924 19.6403 8.108C19.5523 8.284 19.4683 8.484 19.3883 8.708C19.3083 8.924 19.2403 9.136 19.1843 9.344C19.1363 9.552 19.1123 9.732 19.1123 9.884C19.1123 10.004 19.1363 10.108 19.1843 10.196C19.2323 10.284 19.3243 10.328 19.4603 10.328C19.6363 10.328 19.8163 10.256 20.0003 10.112C20.1923 9.968 20.3763 9.784 20.5523 9.56C20.7363 9.336 20.9003 9.108 21.0443 8.876C21.0603 8.82 21.0763 8.732 21.0923 8.612C21.1083 8.492 21.1363 8.368 21.1763 8.24C21.2163 8.104 21.2843 7.98 21.3803 7.868C21.4843 7.756 21.6283 7.7 21.8123 7.7C21.8763 7.7 21.9363 7.704 21.9923 7.712C22.0483 7.72 22.1163 7.732 22.1963 7.748C22.1963 7.868 22.1523 8.104 22.0643 8.456C21.9843 8.8 21.8763 9.2 21.7403 9.656C21.6043 10.112 21.4523 10.568 21.2843 11.024C21.6203 10.888 21.9683 10.664 22.3283 10.352C22.6963 10.032 22.9923 9.58 23.2163 8.996L23.4203 9.164C23.3003 9.564 23.1163 9.912 22.8683 10.208C22.6283 10.504 22.3563 10.756 22.0523 10.964C21.7483 11.172 21.4403 11.344 21.1283 11.48C20.9123 12 20.6763 12.48 20.4203 12.92C20.1723 13.36 19.9083 13.708 19.6283 13.964C19.3483 14.228 19.0483 14.36 18.7283 14.36ZM18.6083 13.916C18.7603 13.916 18.9723 13.756 19.2443 13.436C19.5163 13.116 19.7923 12.636 20.0723 11.996C19.8163 12.124 19.5563 12.272 19.2923 12.44C19.0363 12.616 18.8203 12.8 18.6443 12.992C18.4683 13.184 18.3803 13.38 18.3803 13.58C18.3803 13.66 18.3963 13.736 18.4283 13.808C18.4683 13.88 18.5283 13.916 18.6083 13.916ZM26.449 11.456C26.177 11.456 25.993 11.336 25.897 11.096C25.809 10.864 25.757 10.584 25.741 10.256C25.749 10.16 25.753 10.028 25.753 9.86C25.761 9.692 25.769 9.552 25.777 9.44C25.609 9.744 25.425 10.044 25.225 10.34C25.025 10.636 24.813 10.88 24.589 11.072C24.365 11.264 24.129 11.36 23.881 11.36C23.609 11.36 23.385 11.24 23.209 11C23.033 10.752 22.945 10.456 22.945 10.112C22.945 9.88 22.981 9.612 23.053 9.308C23.133 9.004 23.229 8.708 23.341 8.42C23.461 8.132 23.581 7.892 23.701 7.7C23.829 7.508 23.941 7.412 24.037 7.412C24.093 7.412 24.189 7.444 24.325 7.508C24.469 7.572 24.557 7.656 24.589 7.76C24.501 7.888 24.393 8.084 24.265 8.348C24.145 8.612 24.037 8.896 23.941 9.2C23.853 9.496 23.809 9.768 23.809 10.016C23.809 10.064 23.813 10.148 23.821 10.268C23.837 10.38 23.873 10.484 23.929 10.58C23.985 10.676 24.069 10.724 24.181 10.724C24.357 10.724 24.541 10.616 24.733 10.4C24.933 10.184 25.133 9.912 25.333 9.584C25.533 9.256 25.721 8.92 25.897 8.576C25.969 8.232 26.029 7.984 26.077 7.832C26.125 7.68 26.173 7.584 26.221 7.544C26.277 7.504 26.341 7.484 26.413 7.484C26.565 7.484 26.681 7.516 26.761 7.58C26.849 7.636 26.893 7.72 26.893 7.832C26.893 7.84 26.885 7.876 26.869 7.94C26.853 7.996 26.841 8.032 26.833 8.048C26.785 8.216 26.741 8.42 26.701 8.66C26.661 8.892 26.629 9.144 26.605 9.416C26.581 9.68 26.569 9.948 26.569 10.22C26.569 10.412 26.581 10.564 26.605 10.676C26.629 10.78 26.689 10.832 26.785 10.832C26.897 10.832 27.025 10.764 27.169 10.628C27.321 10.492 27.477 10.312 27.637 10.088C27.805 9.864 27.965 9.62 28.117 9.356C28.277 9.084 28.421 8.812 28.549 8.54C28.549 8.124 28.577 7.808 28.633 7.592C28.697 7.376 28.777 7.228 28.873 7.148C28.977 7.06 29.089 7.016 29.209 7.016C29.409 7.016 29.545 7.08 29.617 7.208C29.697 7.336 29.737 7.444 29.737 7.532C29.737 7.612 29.717 7.688 29.677 7.76C29.637 7.824 29.605 7.884 29.581 7.94C29.525 8.06 29.469 8.204 29.413 8.372C29.365 8.54 29.341 8.752 29.341 9.008C29.341 9.144 29.353 9.284 29.377 9.428C29.409 9.564 29.461 9.676 29.533 9.764C29.613 9.852 29.725 9.896 29.869 9.896C30.013 9.896 30.157 9.832 30.301 9.704C30.453 9.576 30.617 9.336 30.793 8.984L31.021 9.164C30.845 9.58 30.645 9.868 30.421 10.028C30.197 10.18 29.981 10.256 29.773 10.256C29.509 10.256 29.285 10.16 29.101 9.968C28.917 9.776 28.773 9.54 28.669 9.26C28.469 9.604 28.245 9.948 27.997 10.292C27.757 10.628 27.505 10.904 27.241 11.12C26.977 11.344 26.713 11.456 26.449 11.456ZM31.3193 11.384C30.9593 11.384 30.7113 11.264 30.5753 11.024C30.4473 10.792 30.3833 10.536 30.3833 10.256C30.3833 10 30.4233 9.74 30.5033 9.476C30.5833 9.204 30.6913 8.952 30.8273 8.72C30.9713 8.488 31.1273 8.304 31.2953 8.168C31.4713 8.024 31.6473 7.952 31.8233 7.952C31.8793 7.952 31.9433 7.964 32.0153 7.988C32.0953 8.004 32.1513 8.032 32.1833 8.072C32.0873 8.192 31.9873 8.34 31.8833 8.516C31.7873 8.692 31.6953 8.88 31.6073 9.08C31.5273 9.272 31.4633 9.468 31.4153 9.668C31.3673 9.868 31.3433 10.052 31.3433 10.22C31.3433 10.38 31.3713 10.512 31.4273 10.616C31.4913 10.72 31.5993 10.772 31.7513 10.772C31.9033 10.772 32.0833 10.688 32.2913 10.52C32.5073 10.344 32.7113 10.144 32.9033 9.92C32.6473 9.688 32.4633 9.436 32.3513 9.164C32.2393 8.884 32.1833 8.548 32.1833 8.156C32.1833 7.988 32.2233 7.796 32.3033 7.58C32.3913 7.364 32.5273 7.176 32.7113 7.016C32.9033 6.856 33.1593 6.776 33.4793 6.776C33.8233 6.776 34.0633 6.872 34.1993 7.064C34.3433 7.256 34.4153 7.484 34.4153 7.748C34.4153 8.044 34.3353 8.376 34.1753 8.744C34.0233 9.112 33.8393 9.46 33.6233 9.788C33.7193 9.836 33.8313 9.86 33.9593 9.86C34.0793 9.86 34.2233 9.832 34.3913 9.776C34.5593 9.72 34.7233 9.628 34.8833 9.5C35.0433 9.364 35.1713 9.184 35.2673 8.96L35.4833 9.116C35.3073 9.524 35.0713 9.824 34.7753 10.016C34.4873 10.2 34.2033 10.292 33.9233 10.292C33.8193 10.292 33.7153 10.284 33.6113 10.268C33.5073 10.244 33.4113 10.216 33.3233 10.184C33.0513 10.504 32.7393 10.784 32.3873 11.024C32.0353 11.264 31.6793 11.384 31.3193 11.384ZM33.2153 9.536C33.4073 9.256 33.5713 8.956 33.7073 8.636C33.8433 8.316 33.9113 8.02 33.9113 7.748C33.9113 7.564 33.8833 7.432 33.8273 7.352C33.7713 7.264 33.6873 7.22 33.5753 7.22C33.4233 7.22 33.2673 7.328 33.1073 7.544C32.9473 7.76 32.8673 8.032 32.8673 8.36C32.8673 8.528 32.8953 8.732 32.9513 8.972C33.0153 9.212 33.1033 9.4 33.2153 9.536ZM35.7842 11.384C35.4242 11.384 35.1762 11.264 35.0402 11.024C34.9122 10.792 34.8482 10.536 34.8482 10.256C34.8482 10 34.8882 9.74 34.9682 9.476C35.0482 9.204 35.1562 8.952 35.2922 8.72C35.4362 8.488 35.5922 8.304 35.7602 8.168C35.9362 8.024 36.1122 7.952 36.2882 7.952C36.3442 7.952 36.4082 7.964 36.4802 7.988C36.5602 8.004 36.6162 8.032 36.6482 8.072C36.5522 8.192 36.4522 8.34 36.3482 8.516C36.2522 8.692 36.1602 8.88 36.0722 9.08C35.9922 9.272 35.9282 9.468 35.8802 9.668C35.8322 9.868 35.8082 10.052 35.8082 10.22C35.8082 10.38 35.8362 10.512 35.8922 10.616C35.9562 10.72 36.0642 10.772 36.2162 10.772C36.3682 10.772 36.5482 10.688 36.7562 10.52C36.9722 10.344 37.1762 10.144 37.3682 9.92C37.1122 9.688 36.9282 9.436 36.8162 9.164C36.7042 8.884 36.6482 8.548 36.6482 8.156C36.6482 7.988 36.6882 7.796 36.7682 7.58C36.8562 7.364 36.9922 7.176 37.1762 7.016C37.3682 6.856 37.6242 6.776 37.9442 6.776C38.2882 6.776 38.5282 6.872 38.6642 7.064C38.8082 7.256 38.8802 7.484 38.8802 7.748C38.8802 8.044 38.8002 8.376 38.6402 8.744C38.4882 9.112 38.3042 9.46 38.0882 9.788C38.1842 9.836 38.2962 9.86 38.4242 9.86C38.5442 9.86 38.6882 9.832 38.8562 9.776C39.0242 9.72 39.1882 9.628 39.3482 9.5C39.5082 9.364 39.6362 9.184 39.7322 8.96L39.9482 9.116C39.7722 9.524 39.5362 9.824 39.2402 10.016C38.9522 10.2 38.6682 10.292 38.3882 10.292C38.2842 10.292 38.1802 10.284 38.0762 10.268C37.9722 10.244 37.8762 10.216 37.7882 10.184C37.5162 10.504 37.2042 10.784 36.8522 11.024C36.5002 11.264 36.1442 11.384 35.7842 11.384ZM37.6802 9.536C37.8722 9.256 38.0362 8.956 38.1722 8.636C38.3082 8.316 38.3762 8.02 38.3762 7.748C38.3762 7.564 38.3482 7.432 38.2922 7.352C38.2362 7.264 38.1522 7.22 38.0402 7.22C37.8882 7.22 37.7322 7.328 37.5722 7.544C37.4122 7.76 37.3322 8.032 37.3322 8.36C37.3322 8.528 37.3602 8.732 37.4162 8.972C37.4802 9.212 37.5682 9.4 37.6802 9.536ZM40.285 11.36C40.133 11.36 39.977 11.32 39.817 11.24C39.665 11.168 39.537 11.052 39.433 10.892C39.321 10.732 39.265 10.528 39.265 10.28C39.265 10.016 39.329 9.72 39.457 9.392C39.585 9.064 39.757 8.736 39.973 8.408C40.197 8.08 40.453 7.78 40.741 7.508C41.037 7.236 41.349 7.016 41.677 6.848C42.005 6.68 42.337 6.596 42.673 6.596C42.857 6.596 43.001 6.628 43.105 6.692C43.209 6.748 43.261 6.844 43.261 6.98C43.261 7.02 43.253 7.068 43.237 7.124C43.221 7.172 43.181 7.216 43.117 7.256C43.085 7.208 43.029 7.176 42.949 7.16C42.869 7.136 42.785 7.124 42.697 7.124C42.433 7.124 42.181 7.2 41.941 7.352C41.701 7.496 41.481 7.684 41.281 7.916C41.081 8.148 40.905 8.4 40.753 8.672C40.609 8.944 40.497 9.208 40.417 9.464C40.337 9.712 40.297 9.928 40.297 10.112C40.297 10.264 40.329 10.388 40.393 10.484C40.457 10.572 40.553 10.616 40.681 10.616C40.897 10.616 41.153 10.492 41.449 10.244C41.753 9.988 42.061 9.624 42.373 9.152C42.693 8.672 42.981 8.1 43.237 7.436C43.413 6.98 43.597 6.516 43.789 6.044C43.981 5.564 44.173 5.104 44.365 4.664C44.557 4.224 44.745 3.832 44.929 3.488C45.121 3.144 45.301 2.872 45.469 2.672C45.645 2.464 45.805 2.36 45.949 2.36C46.037 2.36 46.113 2.396 46.177 2.468C46.249 2.532 46.285 2.616 46.285 2.72C46.285 2.856 46.217 3.076 46.081 3.38C45.953 3.676 45.785 4.032 45.577 4.448C45.377 4.864 45.157 5.316 44.917 5.804C44.685 6.284 44.465 6.78 44.257 7.292C44.057 7.796 43.889 8.296 43.753 8.792C43.625 9.28 43.561 9.74 43.561 10.172C43.561 10.364 43.577 10.496 43.609 10.568C43.649 10.632 43.713 10.664 43.801 10.664C43.977 10.664 44.173 10.596 44.389 10.46C44.605 10.324 44.825 10.124 45.049 9.86C45.273 9.588 45.477 9.264 45.661 8.888L45.889 9.08C45.713 9.52 45.489 9.908 45.217 10.244C44.945 10.58 44.653 10.84 44.341 11.024C44.029 11.216 43.721 11.312 43.417 11.312C43.089 11.312 42.861 11.208 42.733 11C42.605 10.792 42.541 10.548 42.541 10.268C42.541 10.14 42.549 10.012 42.565 9.884C42.589 9.748 42.613 9.616 42.637 9.488C42.389 9.848 42.125 10.172 41.845 10.46C41.573 10.74 41.305 10.96 41.041 11.12C40.777 11.28 40.525 11.36 40.285 11.36Z" fill="white"/>
</svg>
